<svg xmlns="http://www.w3.org/2000/svg" width="21" height="22" viewBox="0 0 21 22">
    <path fill="#F7524F" d="M10.5 21.5c.156 0 .281-.047.375-.14l9.89-9.938c.126-.094.188-.219.188-.375s-.062-.281-.187-.375l.047-.047-.375-.328c-.094-.094-.22-.14-.375-.14-.157 0-.297.046-.422.14l-8.344 8.39V1.063c0-.156-.055-.289-.164-.398-.11-.11-.242-.164-.399-.164h-.468c-.157 0-.29.055-.399.164-.11.11-.164.242-.164.398v17.625l-8.344-8.39c-.125-.094-.265-.14-.421-.14-.157 0-.282.046-.375.14l-.375.328c-.094.125-.141.266-.141.422 0 .156.047.297.14.422l9.891 9.89c.125.094.266.141.422.141z"/>
</svg>
