<svg xmlns="http://www.w3.org/2000/svg" width="21" height="22" viewBox="0 0 21 22">
    <path fill="#28BF64" d="M10.734 21.5c.157 0 .29-.055.399-.164.11-.11.164-.242.164-.398V3.313l8.344 8.39c.125.094.265.14.422.14.156 0 .28-.046.375-.14l.375-.328c.093-.125.14-.266.14-.422 0-.156-.047-.281-.14-.375L10.874.688C10.781.563 10.656.5 10.5.5s-.281.063-.375.188l-9.938 9.89c-.093.094-.14.219-.14.375s.047.297.14.422l.376.328c.093.094.218.14.375.14.156 0 .296-.046.421-.14l8.344-8.39v17.625c0 .156.055.289.164.398.11.11.242.164.399.164h.468z"/>
</svg>
